<?xml version="1.0" encoding="utf-8"?>
<!-- Generator: Adobe Illustrator 25.0.0, SVG Export Plug-In . SVG Version: 6.00 Build 0)  -->
<svg version="1.1" id="Calque_1" xmlns="http://www.w3.org/2000/svg" xmlns:xlink="http://www.w3.org/1999/xlink" x="0px" y="0px"
	 viewBox="0 0 90 90" style="enable-background:new 0 0 90 90;" xml:space="preserve">
<style type="text/css">
	.st0{fill:#0052B5;}
	.st1{fill:#FFFFFF;}
	.st2{fill:#D90026;}
</style>
<path class="st0" d="M90,45c0,24.9-20.1,45-45,45S0,69.9,0,45S20.1,0,45,0S90,20.1,90,45z"/>
<path class="st1" d="M33.8,24.8V1.4c1.8-0.5,3.7-0.8,5.6-1.1C41.2,0.1,43.1,0,45,0s3.8,0.1,5.6,0.3c1.9,0.2,3.8,0.6,5.6,1.1v29.5
	l19.1-19.1c2.1,1.9,5.1,5.7,6.8,7.9L67.5,33.8h21.1c0.5,1.8,0.8,3.7,1.1,5.6c0.2,1.8,0.3,3.7,0.3,5.6s-0.1,3.8-0.3,5.6
	c-0.2,1.9-0.6,3.8-1.1,5.6H64.1L81,72c-2.4,3.2-5.3,6.1-8.4,8.6L56.2,64.1v24.5c-1.8,0.5-3.7,0.8-5.6,1.1C48.8,89.9,46.9,90,45,90
	s-3.8-0.1-5.6-0.3c-1.9-0.2-3.8-0.6-5.6-1.1v-29L15.2,78.7c-2.5-2.2-4.8-4.7-6.8-7.5l16.3-15H1.4c-0.5-1.8-0.8-3.7-1.1-5.6
	C0.1,48.8,0,46.9,0,45s0.1-3.8,0.3-5.6c0.2-1.9,0.6-3.8,1.1-5.6h23.9L9,18c2.5-3.3,5.4-6.3,8.7-8.8L33.8,24.8z"/>
<path class="st2" d="M33.8,33.8L13.2,13.1c-1.1,1.1-2.1,2.2-3.1,3.4l18,17.2H33.8z"/>
<path class="st2" d="M56.2,33.8l20.5-20.6c1.1,1.1,2.1,2.2,3.1,3.4l-18,17.2H56.2z"/>
<path class="st2" d="M56.2,56.6l20.5,20.6c1.1-1.1,2.1-2.2,3.1-3.4l-18-17.2H56.2z"/>
<path class="st2" d="M33.8,56.6L13.2,77.2c-1.1-1.1-2.1-2.2-3.1-3.4l18-17.2H33.8z"/>
<path class="st2" d="M0.3,39.4C0.1,41.2,0,43.1,0,45s0.1,3.8,0.3,5.6h39v39c1.8,0.2,3.7,0.3,5.6,0.3s3.8-0.1,5.6-0.3v-39h39
	c0.2-1.8,0.3-3.7,0.3-5.6s-0.1-3.8-0.3-5.6h-39v-39C48.4,0,47.3,0,45,0c-1.9,0-3.8,0.1-5.6,0.3v39H0.3z"/>
</svg>
