<?xml version="1.0" encoding="utf-8"?>
<!-- Generator: Adobe Illustrator 25.0.0, SVG Export Plug-In . SVG Version: 6.00 Build 0)  -->
<svg version="1.1" id="Calque_1" xmlns="http://www.w3.org/2000/svg" xmlns:xlink="http://www.w3.org/1999/xlink" x="0px" y="0px"
	 viewBox="0 0 17 15" style="enable-background:new 0 0 17 15;" xml:space="preserve">
<path d="M9.4,9.8L7.5,7.9l0,0C8.8,6.4,9.7,4.8,10.2,3h2.1V1.5H7.3V0H5.8v1.5H0.7V3h8.1C8.4,4.4,7.6,5.8,6.5,7
	C5.9,6.2,5.3,5.4,4.9,4.5H3.4c0.5,1.2,1.3,2.4,2.2,3.4l-3.7,3.8l1,1.1L6.5,9l2.3,2.3L9.4,9.8z M13.4,6H12l-3.3,9h1.5l0.8-2.2h3.5
	l0.8,2.2h1.5L13.4,6z M11.5,11.2L12.7,8l1.2,3.2H11.5z"/>
</svg>
