<svg id="baaaa05a-6d7d-4221-b83d-9f29203ba65e" data-name="Calque 1" xmlns="http://www.w3.org/2000/svg" viewBox="0 0 136.14669 136.23558"><path d="M946.12411,504.3425c16.11264-5.97853,30.4172-3.46764,42.338,8.3178,11.91,11.77486,13.771,26.14412,8.68283,42.24271a16.0125,16.0125,0,0,0,3.9158.6558c5.18465-.46665,10.35351-1.11108,15.5255-1.71321.612-.07126,1.20543-.29321,1.81155-.42679,4.0123-.88425,5.76111.9391,4.56036,4.81951a62.29871,62.29871,0,0,1-11.816,21.41471c-.77953.94157-1.53339,1.90441-2.47767,3.07957,1.71482,1.744,3.31317,3.27987,4.807,4.91146,1.85949,2.031,2.01237,3.43641.69677,4.92905-1.27058,1.44154-3.42888,1.38835-5.27773-.33829-1.71292-1.59969-3.261-3.3759-4.99963-5.198a66.55084,66.55084,0,0,1-19.48412,11.3477,63.52139,63.52139,0,0,1-44.2145-119.09934c.81364-.30106,1.62988-.60076,2.46027-.84991,4.38359-1.3152,6.26336.437,5.07865,4.93459a56.78788,56.78788,0,0,0-1.98221,16.96857C945.79932,501.52581,945.96722,502.70824,946.12411,504.3425Zm68.289,56.93945c-22.06327,2.97256-41.22794-2.39532-56.77-18.03072-15.501-15.59412-20.67542-34.77513-17.54641-56.52643-19.3457,7.04069-38.32049,31.18859-33.97383,60.44842a57.20622,57.20622,0,0,0,54.75316,48.54812C985.77121,596.59037,1007.29878,580.37612,1014.41309,561.282ZM947.518,511.59437c3.19941,19.77,22.90858,39.31145,42.31727,42.08006,5.53179-8.24319,5.14676-25.91633-6.30485-36.90315C973.779,507.41562,957.52977,504.92393,947.518,511.59437Z" transform="translate(-899.02222 -466.03773)"/><path d="M1001.69955,504.01657c-1.00143-.80617-2.24743-1.38094-2.74368-2.34262a3.56437,3.56437,0,0,1,.24881-3.02931,26.14315,26.14315,0,0,1,3.49534-3.85039c2.095-2.12773,4.16234-4.28948,6.36092-6.30655,1.95233-1.79114,3.52418-1.82913,4.92041-.40312,1.45869,1.4898,1.45528,3.05575-.32733,4.92151-3.00763,3.14794-6.11524,6.20221-9.24007,9.23481A18.15872,18.15872,0,0,1,1001.69955,504.01657Z" transform="translate(-899.02222 -466.03773)"/><path d="M964.41672,476.612c.00066,2.1028.07587,4.209-.01965,6.30748-.10389,2.28239-1.534,3.84282-3.33,3.60405a3.194,3.194,0,0,1-2.99691-3.56389c.02043-4.4529-.048-8.90687.02675-13.3586.03962-2.36081,1.34745-3.71168,3.289-3.55029,2.09963.17454,2.99677,1.52032,3.02291,3.5108C964.43968,471.9113,964.41606,474.26179,964.41672,476.612Z" transform="translate(-899.02222 -466.03773)"/><path d="M1024.91319,536.80322c2.23528.003,4.47064-.01145,6.70573.00725,2.01094.01685,3.4846.96676,3.54794,3.0111a3.07882,3.07882,0,0,1-3.3109,3.29115c-4.59114.099-9.18757.11931-13.778.00918-1.93229-.04637-3.31812-1.06264-3.28792-3.25854.03068-2.23008,1.4345-3.01738,3.41736-3.05369C1020.442,536.76876,1022.67786,536.80024,1024.91319,536.80322Z" transform="translate(-899.02222 -466.03773)"/></svg>