<?xml version="1.0" encoding="utf-8"?>
<!-- Generator: Adobe Illustrator 25.0.0, SVG Export Plug-In . SVG Version: 6.00 Build 0)  -->
<svg version="1.1" id="Calque_1" xmlns="http://www.w3.org/2000/svg" xmlns:xlink="http://www.w3.org/1999/xlink" x="0px" y="0px"
	 viewBox="0 0 17 16" style="enable-background:new 0 0 17 16;" xml:space="preserve">
<path d="M4.7,3.1L3.4,1.8l-1,1l1.3,1.3L4.7,3.1z M2.7,7.3H0.5v1.5h2.2V7.3z M9.2,0H7.8v2.2h1.5V0z M14.6,2.9l-1-1l-1.3,1.3l1,1
	L14.6,2.9z M12.3,12.9l1.3,1.3l1-1l-1.3-1.3L12.3,12.9z M14.3,7.3v1.5h2.2V7.3H14.3z M8.5,3.6c-2.4,0-4.4,2-4.4,4.4
	c0,2.4,2,4.4,4.4,4.4c2.4,0,4.4-2,4.4-4.4C12.9,5.6,10.9,3.6,8.5,3.6z M7.8,16h1.5v-2.2H7.8V16z M2.4,13.1l1,1l1.3-1.3l-1-1
	L2.4,13.1z"/>
</svg>
