<svg id="aba6cd62-08a4-4018-8698-32af846e597b" data-name="Calque 1" xmlns="http://www.w3.org/2000/svg" viewBox="0 0 205.61736 205.35103"><defs><style>.be8dd78e-c9dd-46c0-a9e9-85d402fa1e1e{fill:#c5ccd4;}.b3ca50b5-a6f1-4df4-868d-3d4bb516acbb{fill:#88919a;}</style></defs><path class="be8dd78e-c9dd-46c0-a9e9-85d402fa1e1e" d="M891.8237,614.73823c-5.99091-4.00735-10.191-9.75426-14.37586-15.39248a100.23178,100.23178,0,0,1-18.85394-46.35826,101.33831,101.33831,0,0,1,6.60982-52.83643,98.50736,98.50736,0,0,1,24.04645-35.45435c15.9581-14.971,34.66265-24.34039,56.55793-27.37091,22.51057-3.11569,43.78235.41741,63.57374,11.36783,27.60779,15.27516,44.72129,38.65,51.62858,69.43493a85.571,85.571,0,0,1,2.156,21.006c-.69251,25.00672-8.20092,47.58049-24.94651,66.69742a55.287,55.287,0,0,1-9.79111,8.90636c-1.41228-.44195-1.59347-1.79082-2.10776-2.88409a73.54015,73.54015,0,0,0-39.13623-37.57593,10.63622,10.63622,0,0,0-8.93828.097,44.73763,44.73763,0,0,1-36.24053,0,10.63626,10.63626,0,0,0-8.93831-.09708,73.54059,73.54059,0,0,0-39.13626,37.57591C893.41718,612.94743,893.236,614.29631,891.8237,614.73823Z" transform="translate(-857.57764 -436.24045)"/><path class="b3ca50b5-a6f1-4df4-868d-3d4bb516acbb" d="M891.8237,614.73823c6.37872-16.4668,17.51817-28.7477,32.83514-37.36068.64395-.36211,1.20142-.89356,1.86647-1.20014,5.54223-2.55493,10.46525-5.30881,17.39953-2.21177,11.67732,5.21539,23.88188,4.34871,35.52773-1.2049,2.54459-1.21347,4.86015-.71755,7.166.2216a75.23409,75.23409,0,0,1,39.91549,36.91692c.77772,1.53875,1.26852,3.22254,1.89368,4.839-13.26715,12.90941-29.2846,20.55846-47.17981,24.55816a94.32915,94.32915,0,0,1-23.55308,2.25074,100.70505,100.70505,0,0,1-50.07655-14.74327C901.92253,623.34213,896.40146,619.6597,891.8237,614.73823Z" transform="translate(-857.57764 -436.24045)"/><path class="b3ca50b5-a6f1-4df4-868d-3d4bb516acbb" d="M960.13881,567.53157c-21.10006-.02225-37.90391-16.298-38.04394-37.92708a38.01953,38.01953,0,0,1,76.03822.348C997.92955,551.32528,981.223,567.47705,960.13881,567.53157Z" transform="translate(-857.57764 -436.24045)"/></svg>