<svg id="e48387ae-7a9a-4f4e-bfd8-4e92451683a5" data-name="Calque 1" xmlns="http://www.w3.org/2000/svg" viewBox="0 0 205.82732 205.66582"><defs><style>.a96513d8-0ad5-4fb7-bc07-2deb7b0bd373{fill:#0d1117;}.a4fd6a59-99b7-4a83-9361-008807d2bcac{fill:#21262d;}</style></defs><path class="a96513d8-0ad5-4fb7-bc07-2deb7b0bd373" d="M892.07976,615.42449c-16.7821-14.84144-27.30569-33.2943-32.205-55.12258a97.58365,97.58365,0,0,1-2.064-29.16c1.56378-19.75231,8.07518-37.8633,20.11812-53.75443,17.11456-22.58334,39.69479-36.59946,67.75147-40.33761,36.7213-4.89259,67.97189,6.6781,92.57318,34.55472,18.362,20.80669,26.51331,45.572,24.86942,73.16857-1.67239,28.07536-13.06276,51.79829-34.215,70.613-1.84029.15258-1.73574-1.48305-2.18478-2.4941-8.18848-18.43719-21.78478-31.24232-40.35227-38.916a9.12252,9.12252,0,0,0-7.55832.1839,45.25407,45.25407,0,0,1-37.35137.00623,9.46671,9.46671,0,0,0-7.91285-.05813c-18.53118,7.76408-32.08586,20.61491-40.12283,39.13A4.39018,4.39018,0,0,1,892.07976,615.42449Z" transform="translate(-857.50235 -435.95887)"/><path class="a4fd6a59-99b7-4a83-9361-008807d2bcac" d="M892.07976,615.42449c1.5812-8.3801,6.68347-14.86645,11.90864-21.11332a72.53808,72.53808,0,0,1,28.50355-20.854,11.57089,11.57089,0,0,1,9.91932.02484c11.12726,4.91417,22.80458,5.44827,33.88649.51552,5.9213-2.63567,10.547-1.32632,15.44237,1.15364,15.14795,7.67384,26.81423,18.93922,34.4934,34.17695.99211,1.96863,1.78778,4.03628,2.67445,6.05806a97.54656,97.54656,0,0,1-50.98155,24.6782c-29.57075,4.92625-56.31069-1.846-80.23242-19.84253C895.73071,618.74489,893.94694,617.02924,892.07976,615.42449Z" transform="translate(-857.50235 -435.95887)"/><path class="a4fd6a59-99b7-4a83-9361-008807d2bcac" d="M960.4316,492.02383c20.70767-.84781,37.89,16.97375,37.73,37.76134A37.5755,37.5755,0,0,1,959.085,567.51976c-20.21367-.52671-36.85134-16.13339-36.98509-37.95033C921.9759,509.33665,938.95655,490.85811,960.4316,492.02383Z" transform="translate(-857.50235 -435.95887)"/></svg>